<svg
  width="200"
  height="200"
  viewBox="0 0 200 200"
  fill="none"
  xmlns="http://www.w3.org/2000/svg"
>
  <!-- Molecule Grid -->
  <g class="molecule-grid">
    <path
      d="M100 50C100 50 150 100 150 130C150 160 100 160 100 130C100 100 150 100 150 130"
      stroke="#2a6f97"
      stroke-width="3"
    />
    <circle cx="100" cy="80" r="8" fill="#2ecc71" />
    <circle cx="120" cy="100" r="8" fill="#3498db" />
    <circle cx="100" cy="120" r="8" fill="#2ecc71" />
    <circle cx="80" cy="100" r="8" fill="#3498db" />
    <circle cx="140" cy="80" r="8" fill="#2ecc71" />
    <circle cx="140" cy="120" r="8" fill="#3498db" />
    <line
      x1="100"
      y1="88"
      x2="100"
      y2="112"
      stroke="#1e4d6b"
      stroke-width="2"
    />
    <line
      x1="88"
      y1="100"
      x2="112"
      y2="100"
      stroke="#1e4d6b"
      stroke-width="2"
    />
  </g>
  
  <!-- Water Wave -->
  <path
    d="M40 130C60 130 60 110 80 110C100 110 100 130 120 130C140 130 140 110 160 110"
    stroke="#3498db"
    stroke-width="3"
    fill="none"
  />
  
  <!-- Water Drops -->
  <circle cx="45" cy="140" r="4" fill="#3498db" />
  <circle cx="155" cy="140" r="4" fill="#3498db" />
</svg>
